# xmcd
#
# Track frame offsets: 
#        215
#        14997
#        27722
#        40930
#        54995
#        67850
#        80197
#        92775
#        105047
#        120847
#        135357
#        149937
#        166350
#        182110
#        198760
#        216092
#        227037
#
# Disc length: 3273 seconds
#
# Revision: 3
# Processed by: cddbd v1.5.1PL0 Copyright (c) Steve Scherf et al.
# Submitted via: ExactAudioCopy v0.95b2
#
DISCID=ec0cc711
DTITLE=Various Artist - Derrick Harriott: Riding the Musical Chariot
DYEAR=1900
DGENRE=Reggae
TTITLE0=Keith and Tex -  Don't Look Back
TTITLE1=Harriott, Derrick/ Do I Worry
TTITLE2=Scotty - I Worry
TTITLE3=Ellis, Bobby and Crystalites - Alfred Hitchcock
TTITLE4=Harriott, Derrick/ Solomon
TTITLE5=Keith and Tex - Lonely Man
TTITLE6=Ethiopians - Throne Of Justice
TTITLE7=Ethiopians - No Baptism
TTITLE8=Kingstonians - Medley
TTITLE9=Mills, Rudy - Long Story
TTITLE10=Keith and Tex - Stop That Train
TTITLE11=Bennett, Ike and Crystalites - Easy Ride
TTITLE12=Big Youth - Cool Breeze
TTITLE13=Kingstonians - Winey, Winey
TTITLE14=Crystalites - The Bad
TTITLE15=Lloyd and Glen - That Girl
TTITLE16=Keith and Tex - Keith and Tex Medley
EXTD=
EXTT0=Keith and Tex
EXTT1=Derrick Harriott
EXTT2=Scotty
EXTT3=Bobby Ellis And The Crystalites
EXTT4=Derrick Harriott
EXTT5=Keith and Tex
EXTT6=Ethiopians
EXTT7=Ethiopians
EXTT8=Kingstonians
EXTT9=Rudy Mills
EXTT10=Keith and Tex
EXTT11=Ike Bennett and The Crystalites
EXTT12=Big Youth
EXTT13=Kingstonians
EXTT14=Crystalites
EXTT15=Lloyd And Glen
EXTT16=Keith and Tex
PLAYORDER=
